<?xml version="1.0" encoding="UTF-8" standalone="no"?>
<!-- Created with Inkscape (http://www.inkscape.org/) -->
<svg
   xmlns:dc="http://purl.org/dc/elements/1.1/"
   xmlns:cc="http://web.resource.org/cc/"
   xmlns:rdf="http://www.w3.org/1999/02/22-rdf-syntax-ns#"
   xmlns:svg="http://www.w3.org/2000/svg"
   xmlns="http://www.w3.org/2000/svg"
   xmlns:xlink="http://www.w3.org/1999/xlink"
   xmlns:sodipodi="http://inkscape.sourceforge.net/DTD/sodipodi-0.dtd"
   xmlns:inkscape="http://www.inkscape.org/namespaces/inkscape"
   width="300"
   height="500"
   id="svg2"
   sodipodi:version="0.32"
   inkscape:version="0.43"
   version="1.0">
  <defs
     id="defs4" />
  <metadata
     id="metadata7">
    <rdf:RDF>
      <cc:Work
         rdf:about="">
        <dc:format>image/svg+xml</dc:format>
        <dc:type
           rdf:resource="http://purl.org/dc/dcmitype/StillImage" />
        <dc:title>Nuevo Escudo de la Ciudad de Madrid</dc:title>
        <dc:date>2006-06-14</dc:date>
        <dc:creator>
          <cc:Agent>
            <dc:title>Valadrem (http://valadrem.blogspot.com)</dc:title>
          </cc:Agent>
        </dc:creator>
        <dc:description>Nuevo Escudo de la Ciudad de Madrid

New Madrid Coat</dc:description>
        <dc:source>http://commons.wikimedia.org/wiki/Image:Nuevo_Escudo_de_Madrid.svg</dc:source>
        <dc:language>es</dc:language>
        <cc:license
           rdf:resource="http://web.resource.org/cc/PublicDomain" />
        <dc:relation>http://commons.wikimedia.org/wiki/Image:Nuevo_Escudo_de_Madrid.svg</dc:relation>
      </cc:Work>
      <cc:License
         rdf:about="http://web.resource.org/cc/PublicDomain">
        <cc:permits
           rdf:resource="http://web.resource.org/cc/Reproduction" />
        <cc:permits
           rdf:resource="http://web.resource.org/cc/Distribution" />
        <cc:permits
           rdf:resource="http://web.resource.org/cc/DerivativeWorks" />
      </cc:License>
    </rdf:RDF>
  </metadata>
  <g
     inkscape:label="Layer 1"
     inkscape:groupmode="layer"
     id="layer1">
    <path
       sodipodi:nodetypes="cczccc"
       id="path1458"
       d="M 42.397305,121.07525 L 42.397305,288.17204 C 42.397305,331.31689 38.479132,380.94185 148.451,380.94185 C 257.44138,380.94185 254.655,329.06861 254.655,286.54676 L 254.655,121.00451 L 42.397305,121.07525 z "
       style="fill:#ffffff;fill-opacity:1;fill-rule:evenodd;stroke:#1f61a9;stroke-width:38.11629868;stroke-linecap:butt;stroke-linejoin:miter;stroke-miterlimit:4;stroke-dasharray:none;stroke-opacity:1" />
    <path
       style="fill:#1f61a9;fill-opacity:1;fill-rule:evenodd;stroke:none;stroke-width:1px;stroke-linecap:butt;stroke-linejoin:miter;stroke-opacity:1"
       d="M 148.1875,149.84375 C 118.98113,150.54908 95.624996,165.83668 95.625,184.65625 C 95.625,202.14303 115.74723,216.57765 142,219.125 L 142,310.71875 L 135.5,320.71875 L 62.75,320.71875 L 62.75,330 L 233.8125,330 L 233.8125,320.71875 L 211.46875,320.71875 C 211.49974,318.92065 212.04069,316.95091 211.34375,315.40625 C 209.97257,312.36723 207.68384,309.67531 205.84375,306.8125 C 209.34263,304.44368 213.24127,300.95495 212.4375,296.28125 C 212.31187,292.26211 209.4633,289.19826 207.75,285.75 C 204.32847,279.769 199.8137,274.06387 197.5,267.78125 C 196.33036,264.60522 198.29816,260.62507 197.40625,257.34375 C 196.23144,253.02168 194.35818,248.09013 191.84375,244.875 C 191.81829,244.84245 191.79871,244.78623 191.78125,244.75 C 191.30378,243.60865 194.42864,240.78557 194.71875,239.375 C 196.65412,236.15025 197.19828,231.2996 194,228.375 C 192.97909,227.55878 192.4312,226.47187 191.6875,226.09375 C 191.11472,225.82015 190.40101,225.95782 189.25,226.96875 C 188.83984,227.55662 188.43898,227.93964 188.09375,228.09375 C 188.07943,228.09976 188.04545,228.11982 188.03125,228.125 C 188.01711,228.12977 187.98276,228.15232 187.96875,228.15625 C 187.9548,228.15976 187.92007,228.15358 187.90625,228.15625 C 187.87185,228.16186 187.81484,228.18725 187.78125,228.1875 C 187.7545,228.18683 187.71372,228.16041 187.6875,228.15625 C 187.67445,228.15373 187.63791,228.15965 187.625,228.15625 C 187.59931,228.14855 187.55641,228.13628 187.53125,228.125 C 187.52499,228.12195 187.50622,228.09702 187.5,228.09375 C 187.48762,228.08675 187.44974,228.07041 187.4375,228.0625 C 187.43141,228.05831 187.4123,228.03567 187.40625,228.03125 C 187.39422,228.02196 187.35564,228.01022 187.34375,228 C 187.28463,227.94658 187.21182,227.85835 187.15625,227.78125 C 186.99061,227.54272 186.85046,227.18387 186.71875,226.71875 C 186.27577,225.17261 185.27116,224.48527 183.65625,224.75 C 182.02473,224.18932 181.33001,225.03013 181.0625,226.5625 C 178.5269,224.61127 175.97202,222.16998 171.71875,220.21875 C 166.94108,219.59431 164.74032,224.5402 166.03125,229.21875 C 165.81748,232.55223 168.11098,235.03969 169.59375,237.78125 C 170.02283,240.59381 169.42575,243.66748 170,246.46875 C 170.52438,249.02679 171.7734,250.76156 173.6875,253.65625 C 173.8959,254.04824 173.992,254.38454 174,254.65625 C 174.00037,254.72312 174.01073,254.81549 174,254.875 C 173.99474,254.90005 173.97596,254.94504 173.96875,254.96875 C 173.9609,254.99201 173.94725,255.04057 173.9375,255.0625 C 173.896,255.14842 173.81993,255.24778 173.75,255.3125 C 173.70188,255.35448 173.62214,255.40482 173.5625,255.4375 C 173.53961,255.44932 173.49317,255.45823 173.46875,255.46875 C 173.42722,255.48557 173.35808,255.51802 173.3125,255.53125 C 171.65268,255.97939 167.47881,254.14605 165.3125,250.5 C 164.80739,248.36268 164.67498,245.99764 163.9375,244 C 162.75614,243.20981 161.73316,241.98899 160.46875,241.4375 C 159.951,241.27097 159.3299,241.28412 158.6875,241.40625 L 158.6875,219.125 C 184.98592,216.56115 205.0625,202.12944 205.0625,184.65625 C 205.0625,165.38501 180.49689,149.84374 150.3125,149.84375 C 149.60505,149.84375 148.88845,149.82682 148.1875,149.84375 z M 158.6875,271.25 C 160.40436,273.95308 162.42496,276.66707 165.34375,278.78125 C 165.35963,278.79275 165.38977,278.8017 165.40625,278.8125 C 165.44819,278.83866 165.51715,278.88406 165.5625,278.90625 C 166.42709,279.30952 167.86561,279.07732 168.5,279.6875 C 168.51314,279.70087 168.5501,279.73583 168.5625,279.75 C 168.68879,279.90313 168.785,280.11371 168.8125,280.375 C 169.94819,283.98738 171.08305,287.60637 172.21875,291.21875 C 173.46326,296.54285 175.19729,297.93052 177.21875,300.84375 C 177.87662,301.46122 178.54669,302.0667 178.75,302.625 C 178.7716,302.68896 178.80384,302.78054 178.8125,302.84375 C 178.81825,302.89784 178.81735,302.97771 178.8125,303.03125 C 178.7991,303.13814 178.74911,303.27027 178.6875,303.375 C 178.47868,303.70606 178.0006,304.03385 177.15625,304.34375 C 174.69019,307.71098 184.56225,313.29139 185.84375,315.125 C 185.85367,315.13978 185.86625,315.17323 185.875,315.1875 C 185.89538,315.22254 185.9248,315.28073 185.9375,315.3125 C 185.94195,315.32494 185.96558,315.33184 185.96875,315.34375 C 186.28099,316.51624 183.52049,319.19498 182.25,320.71875 L 165.21875,320.71875 L 158.6875,310.71875 L 158.6875,271.25 z "
       id="path1460" />
    <path
       style="fill:#ffffff;fill-opacity:1;fill-rule:evenodd;stroke:none;stroke-width:0.22499999;stroke-miterlimit:4;stroke-opacity:1"
       d="M 41.46875,106.9375 L 37,114.65625 L 28.0625,114.65625 L 33.71875,122.34375 L 28.0625,130.03125 L 37,130.03125 L 41.46875,137.71875 L 45.9375,130.03125 L 54.875,130.03125 L 49.21875,122.34375 L 54.875,114.65625 L 45.9375,114.65625 L 41.46875,106.9375 z M 148.53125,106.9375 L 144.0625,114.65625 L 135.125,114.65625 L 140.78125,122.34375 L 135.125,130.03125 L 144.0625,130.03125 L 148.53125,137.71875 L 153,130.03125 L 161.9375,130.03125 L 156.25,122.34375 L 161.9375,114.65625 L 153,114.65625 L 148.53125,106.9375 z M 255.5625,106.9375 L 251.09375,114.65625 L 242.15625,114.65625 L 247.84375,122.34375 L 242.15625,130.03125 L 251.09375,130.03125 L 255.5625,137.71875 L 260.03125,130.03125 L 268.96875,130.03125 L 263.3125,122.34375 L 268.96875,114.65625 L 260.03125,114.65625 L 255.5625,106.9375 z M 135.28125,178.875 C 132.36153,179.21966 130.09375,181.58823 130.09375,184.4375 C 130.09375,187.52768 132.75989,190.03125 136.03125,190.03125 C 139.31362,190.03125 141.96874,187.52768 141.96875,184.4375 C 141.96875,181.35004 139.3026,178.87501 136.03125,178.875 C 135.82679,178.875 135.60539,178.856 135.40625,178.875 C 135.35958,178.87945 135.32759,178.86953 135.28125,178.875 z M 107.6875,180.09375 C 104.76778,180.43841 102.5,182.80699 102.5,185.65625 C 102.5,188.74643 105.13489,191.25 108.40625,191.25 C 111.68862,191.25 114.34375,188.74643 114.34375,185.65625 C 114.34375,182.56879 111.6776,180.09375 108.40625,180.09375 C 108.20179,180.09375 108.01164,180.07475 107.8125,180.09375 C 107.76583,180.0982 107.73385,180.08828 107.6875,180.09375 z M 174.21875,181.65625 C 171.15803,181.87333 168.74999,184.30557 168.75,187.25 C 168.75,190.34018 171.38489,192.84375 174.65625,192.84375 C 177.93862,192.84375 180.59374,190.34017 180.59375,187.25 C 180.59375,184.16254 177.9276,181.65626 174.65625,181.65625 C 174.57958,181.65625 174.51347,181.65354 174.4375,181.65625 C 174.36331,181.6589 174.29221,181.65104 174.21875,181.65625 z M 191.21875,183.5 C 188.22828,183.78193 185.90625,186.16575 185.90625,189.0625 C 185.90625,192.15268 188.57238,194.65625 191.84375,194.65625 C 195.12612,194.65625 197.78125,192.15269 197.78125,189.0625 C 197.78125,185.97504 195.11509,183.5 191.84375,183.5 C 191.69041,183.5 191.52542,183.48925 191.375,183.5 C 191.32721,183.50342 191.26622,183.49552 191.21875,183.5 z M 122.3125,186.65625 C 119.25179,186.87333 116.84375,189.30557 116.84375,192.25 C 116.84375,195.34018 119.5099,197.84375 122.78125,197.84375 C 126.06362,197.84375 128.71875,195.34017 128.71875,192.25 C 128.71875,189.16254 126.0526,186.65626 122.78125,186.65625 C 122.70458,186.65625 122.60722,186.65354 122.53125,186.65625 C 122.45706,186.6589 122.38596,186.65104 122.3125,186.65625 z M 161.53125,190.1875 C 158.43435,190.37156 155.96875,192.81364 155.96875,195.78125 C 155.96875,198.87143 158.63489,201.37501 161.90625,201.375 C 165.18862,201.375 167.84375,198.87143 167.84375,195.78125 C 167.84375,192.69379 165.1776,190.18749 161.90625,190.1875 C 161.88069,190.1875 161.86923,190.1872 161.84375,190.1875 C 161.74262,190.1887 161.63115,190.18156 161.53125,190.1875 z M 142.84375,192.03125 C 139.81847,192.28164 137.46875,194.7045 137.46875,197.625 C 137.46875,200.71518 140.10364,203.1875 143.375,203.1875 C 146.65737,203.1875 149.3125,200.71517 149.3125,197.625 C 149.3125,194.53754 146.64635,192.03126 143.375,192.03125 C 143.24721,192.03125 143.12578,192.02376 143,192.03125 C 142.95165,192.03413 142.89177,192.02728 142.84375,192.03125 z M 177.5,197.15625 C 174.50953,197.43818 172.1875,199.822 172.1875,202.71875 C 172.1875,205.80893 174.82239,208.3125 178.09375,208.3125 C 181.37612,208.3125 184.03126,205.80893 184.03125,202.71875 C 184.03125,199.63129 181.3651,197.15625 178.09375,197.15625 C 177.94041,197.15625 177.80667,197.1455 177.65625,197.15625 C 177.60846,197.15967 177.54747,197.15177 177.5,197.15625 z M 129.5625,201.1875 C 126.60691,201.50116 124.3125,203.87699 124.3125,206.75 C 124.3125,209.84018 126.97864,212.34375 130.25,212.34375 C 133.53237,212.34375 136.1875,209.84019 136.1875,206.75 C 136.1875,203.66254 133.52135,201.1875 130.25,201.1875 C 130.0711,201.1875 129.89363,201.17291 129.71875,201.1875 C 129.67152,201.19144 129.60941,201.18252 129.5625,201.1875 z M 149.8125,203.75 C 146.85691,204.06366 144.5625,206.43949 144.5625,209.3125 C 144.5625,212.40268 147.22864,214.90624 150.5,214.90625 C 153.78237,214.90625 156.4375,212.40268 156.4375,209.3125 C 156.4375,206.22504 153.77135,203.75 150.5,203.75 C 150.3211,203.75 150.14363,203.73541 149.96875,203.75 C 149.92152,203.75394 149.85941,203.74502 149.8125,203.75 z M 41.46875,206.84375 L 37,214.53125 L 28.0625,214.53125 L 33.71875,222.21875 L 28.0625,229.90625 L 37,229.90625 L 41.46875,237.59375 L 45.9375,229.90625 L 54.875,229.90625 L 49.21875,222.21875 L 54.875,214.53125 L 45.9375,214.53125 L 41.46875,206.84375 z M 255.5625,206.84375 L 251.09375,214.53125 L 242.15625,214.53125 L 247.84375,222.21875 L 242.15625,229.90625 L 251.09375,229.90625 L 255.5625,237.59375 L 260.03125,229.90625 L 268.96875,229.90625 L 263.3125,222.21875 L 268.96875,214.53125 L 260.03125,214.53125 L 255.5625,206.84375 z M 41.46875,308.90625 L 37,316.59375 L 28.0625,316.59375 L 33.71875,324.28125 L 28.0625,331.96875 L 37,331.96875 L 41.46875,339.65625 L 45.9375,331.96875 L 54.875,331.96875 L 49.21875,324.28125 L 54.875,316.59375 L 45.9375,316.59375 L 41.46875,308.90625 z M 255.5625,308.90625 L 251.09375,316.59375 L 242.15625,316.59375 L 247.84375,324.28125 L 242.15625,331.96875 L 251.09375,331.96875 L 255.5625,339.65625 L 260.03125,331.96875 L 268.96875,331.96875 L 263.3125,324.28125 L 268.96875,316.59375 L 260.03125,316.59375 L 255.5625,308.90625 z "
       id="path1518" />
    <path
       style="font-size:714.58477783px;font-style:normal;font-variant:normal;font-weight:bold;font-stretch:normal;text-align:start;line-height:125%;writing-mode:lr-tb;text-anchor:start;fill:#1f61a9;fill-opacity:1;stroke:none;stroke-width:1px;stroke-linecap:butt;stroke-linejoin:miter;stroke-opacity:1;font-family:Gill Sans MT"
       d="M 13.362331,439.79094 L 13.362331,445.23485 C 17.891401,441.03573 22.810411,438.93615 28.119371,438.93611 C 35.407881,438.93615 40.506851,441.95054 43.416321,447.9793 C 48.545241,441.95054 54.124111,438.93615 60.152971,438.93611 C 65.041921,438.93615 69.031121,440.42085 72.120581,443.39022 C 75.209881,446.35966 76.754571,450.22888 76.754651,454.99789 L 76.754651,482.26244 L 63.392321,482.26244 L 63.392321,457.38242 C 63.392251,454.38305 62.702391,452.05851 61.322741,450.40881 C 59.942941,448.72918 58.023331,447.88935 55.563891,447.88932 C 51.664611,447.88935 48.155311,450.28887 45.035991,455.08788 L 45.035991,482.26244 L 31.718661,482.26244 L 31.718661,457.11247 C 31.718621,454.14309 30.968771,451.86355 29.469101,450.27384 C 27.999361,448.68419 26.034761,447.88935 23.575281,447.88932 C 20.065961,447.88935 16.661641,449.85396 13.362331,453.78314 L 13.362331,482.26244 L 4.2512741e-007,482.26244 L 4.2512741e-007,439.79094 L 13.362331,439.79094 M 131.46371,471.77954 L 131.46371,479.20305 C 127.02455,481.78254 122.85539,483.07228 118.95621,483.07228 C 114.75702,483.07228 112.26752,481.4826 111.4877,478.30323 C 106.83861,481.4826 102.17455,483.07228 97.495501,483.07228 C 94.196151,483.07228 91.391711,482.03749 89.082181,479.9679 C 86.772641,477.86832 85.617871,475.43881 85.617881,472.67936 C 85.617871,468.99011 86.802631,466.02071 89.172161,463.77114 C 91.571681,461.49162 98.80022,458.5672 110.85783,454.99789 C 111.15774,450.25887 108.69823,447.88935 103.4793,447.88932 C 97.810421,447.88935 92.591471,450.25887 87.822431,454.99789 L 87.822431,444.11007 C 93.401311,440.6608 99.53508,438.93615 106.22376,438.93611 C 118.22132,438.93615 124.22011,443.24028 124.22016,451.84852 L 124.22016,471.19466 C 124.22011,473.17427 124.95497,474.16407 126.42472,474.16406 C 127.53445,474.16407 129.21411,473.36923 131.46371,471.77954 M 110.85783,471.9595 L 110.85783,461.70155 C 106.3887,463.26126 103.31432,464.67098 101.63467,465.93071 C 99.98499,467.16048 99.16015,468.73516 99.16017,470.65476 C 99.16015,471.88453 99.58007,472.94931 100.41992,473.84912 C 101.25973,474.71896 102.27952,475.15387 103.4793,475.15386 C 105.99878,475.15387 108.45828,474.08908 110.85783,471.9595 M 179.78404,419.41001 L 179.78404,482.26244 L 166.42172,482.26244 L 166.42172,478.84313 C 163.00237,481.66256 159.07316,483.07228 154.63408,483.07228 C 148.96519,483.07228 144.22614,480.9727 140.41692,476.77354 C 136.63767,472.57439 134.74805,467.31045 134.74805,460.9817 C 134.74805,454.50302 136.66766,449.20909 140.5069,445.09987 C 144.37611,440.99074 149.32512,438.93615 155.35393,438.93611 C 159.10315,438.93615 162.79241,439.83597 166.42172,441.63557 L 166.42172,419.41001 L 179.78404,419.41001 M 166.42172,470.65476 L 166.42172,450.36382 C 163.99217,448.71418 161.50267,447.88935 158.95321,447.88932 C 155.59386,447.88935 152.96939,449.05912 151.07979,451.39862 C 149.22014,453.73818 148.29033,457.02252 148.29034,461.25164 C 148.29033,465.15088 149.22014,468.28525 151.07979,470.65476 C 152.93939,472.9943 155.4139,474.16407 158.5033,474.16406 C 161.23273,474.16407 163.87219,472.9943 166.42172,470.65476 M 204.57408,439.79094 L 204.57408,451.93851 L 204.75404,451.93851 C 208.62324,443.27028 213.13733,438.93615 218.29634,438.93611 C 220.75581,438.93615 223.71022,440.22589 227.15957,442.80533 L 223.4703,454.63797 C 220.17093,452.53842 217.53146,451.48863 215.55188,451.4886 C 212.46248,451.48863 209.853,453.40824 207.72344,457.24744 C 205.62384,461.0567 204.57406,463.27626 204.57408,463.90611 L 204.57408,482.26244 L 191.21175,482.26244 L 191.21175,439.79094 L 204.57408,439.79094 M 231.79364,425.9787 C 231.79363,423.93916 232.51348,422.19951 233.9532,420.75974 C 235.39291,419.32009 237.11757,418.60024 239.12718,418.60017 C 241.16675,418.60024 242.9064,419.32009 244.34613,420.75974 C 245.78582,422.19951 246.50567,423.93916 246.5057,425.9787 C 246.50567,427.98835 245.78582,429.728 244.34613,431.19765 C 242.9064,432.63742 241.16675,433.35727 239.12718,433.35722 C 237.11757,433.35727 235.39291,432.63742 233.9532,431.19765 C 232.51348,429.728 231.79363,427.98835 231.79364,425.9787 M 245.87582,439.79094 L 245.87582,482.26244 L 232.5135,482.26244 L 232.5135,439.79094 L 245.87582,439.79094 M 300,419.41001 L 300,482.26244 L 286.63768,482.26244 L 286.63768,478.84313 C 283.21832,481.66256 279.28912,483.07228 274.85004,483.07228 C 269.18114,483.07228 264.4421,480.9727 260.63288,476.77354 C 256.85363,472.57439 254.964,467.31045 254.96401,460.9817 C 254.964,454.50302 256.88362,449.20909 260.72286,445.09987 C 264.59207,440.99074 269.54108,438.93615 275.56989,438.93611 C 279.31911,438.93615 283.00838,439.83597 286.63768,441.63557 L 286.63768,419.41001 L 300,419.41001 M 286.63768,470.65476 L 286.63768,450.36382 C 284.20812,448.71418 281.71862,447.88935 279.16916,447.88932 C 275.80982,447.88935 273.18534,449.05912 271.29574,451.39862 C 269.43609,453.73818 268.50629,457.02252 268.5063,461.25164 C 268.50629,465.15088 269.43609,468.28525 271.29574,470.65476 C 273.15535,472.9943 275.62985,474.16407 278.71927,474.16406 C 281.44868,474.16407 284.08815,472.9943 286.63768,470.65476"
       id="text5496" />
    <g
       id="g11983"
       transform="matrix(1.092329,0,0,1.085756,-1.86951,-88.85029)"
       style="fill:#1f61a9;fill-opacity:1;stroke:#ffffff;stroke-opacity:1">
      <path
         sodipodi:nodetypes="ccsscsccscsccscsscc"
         id="path3972"
         d="M 137.94747,110.94785 L 141.04567,111.51758 C 140.54653,112.77047 140.44317,114.13933 140.44317,115.58129 C 140.44317,122.00711 145.96398,127.2355 152.76038,127.2355 C 158.21564,127.2355 166.86169,123.85747 168.45743,119.19125 C 168.63642,119.31477 169.63218,114.97628 170.14645,115.02921 C 170.57752,115.07459 168.53215,119.27192 168.69097,119.19125 L 168.96414,127.59095 C 165.80039,130.47236 157.4997,132.2496 152.76038,132.2496 C 146.55388,132.2496 141.01794,129.20938 137.8794,124.62131 C 134.7459,129.20938 129.215,132.2496 123.01859,132.2496 C 118.28178,132.2496 111.97101,130.47236 108.80473,127.59095 L 109.08043,119.19125 C 109.24933,119.27192 107.20395,115.07459 107.63252,115.02921 C 108.14174,114.97628 109.14507,119.31477 109.31396,119.19125 C 110.91978,123.85747 117.55828,127.2355 123.0312,127.2355 C 129.82507,127.2355 135.32823,122.00711 135.32823,115.58129 C 135.32823,114.13933 135.24252,112.77047 134.73582,111.51758 L 137.94747,110.94785"
         style="font-size:12px;fill:#1f61a9;fill-opacity:1;stroke:#ffffff;stroke-width:0.387757;stroke-linejoin:round;stroke-opacity:1" />
      <path
         sodipodi:nodetypes="czsszss"
         id="path3994"
         d="M 21.373328,144.67056 C 18.444848,144.67056 16.234667,144.94048 16.245106,141.33288 C 16.255546,137.72528 18.830944,137.9952 21.373328,137.9952 L 254.22853,137.9952 C 257.10749,137.9952 259.40292,137.7635 259.35675,141.33288 C 259.3106,144.90077 257.31853,144.67056 254.22853,144.67056 L 21.373328,144.67056 z "
         style="font-size:12px;fill:#1f61a9;fill-opacity:1;stroke:#ffffff;stroke-width:0.38775712;stroke-linejoin:round;stroke-opacity:1" />
      <path
         d="M 137.74075,82.375764 C 140.34989,84.740384 142.35907,88.277233 142.61368,91.914917 C 142.61368,91.914917 143.08257,91.256957 144.89511,90.598997 C 146.70513,89.941038 148.09416,90.198172 148.09416,90.198172 C 148.09416,90.198172 147.12865,92.840095 146.70513,93.762749 C 146.28414,94.687923 145.73962,97.586982 144.61025,100.08521 C 143.51365,102.60109 141.98345,104.4943 141.98345,104.4943 C 140.98769,103.35736 139.48774,102.61874 137.79621,102.61874 C 136.11475,102.61874 134.61481,103.35736 133.61905,104.4943 C 133.61905,104.4943 132.08885,102.60109 130.98217,100.08521 C 129.86288,97.586982 129.3108,94.687923 128.89737,93.762749 C 128.47637,92.840095 127.49826,90.198172 127.49826,90.198172 C 127.49826,90.198172 128.89737,89.941038 130.69982,90.598997 C 132.50984,91.256957 132.99134,91.914917 132.99134,91.914917 C 133.24343,88.277233 135.14168,84.740384 137.74075,82.375764 z M 133.69468,111.08146 C 132.88798,110.18401 132.37119,109.01935 132.37119,107.75637 C 132.37119,106.50347 132.85016,105.33125 133.65686,104.44892 C 133.65686,104.44892 131.42333,102.77755 128.90745,101.64061 C 127.00164,100.76838 123.46227,100.16588 122.40096,99.969255 C 121.33209,99.765056 119.20948,99.364233 119.20948,99.364233 C 119.20948,99.364233 119.2952,99.870937 119.7061,101.0356 C 120.20524,102.44983 120.70186,103.35736 120.70186,103.35736 C 117.02385,103.57921 113.55758,105.40939 111.15515,107.7841 C 113.55758,110.13864 117.01376,111.92596 120.70186,112.16797 C 120.70186,112.16797 120.20524,113.06542 119.7061,114.48721 C 119.2952,115.63423 119.20948,116.1485 119.20948,116.1485 C 119.20948,116.1485 121.33209,115.75776 122.40096,115.56364 C 123.46227,115.34937 127.00164,114.75443 128.90745,113.87464 C 131.42333,112.73518 133.69468,111.09154 133.69468,111.09154 L 133.69468,111.08146 z M 141.87253,111.08146 C 142.67923,110.18401 143.19349,109.01935 143.19349,107.75637 C 143.19349,106.50347 142.71704,105.33125 141.90782,104.44892 C 141.90782,104.44892 144.14388,102.77755 146.65975,101.64061 C 148.57313,100.76838 152.1125,100.16588 153.1738,99.969255 C 154.22503,99.765056 156.34512,99.364233 156.34512,99.364233 C 156.34512,99.364233 156.27202,99.870937 155.8485,101.0356 C 155.34936,102.44983 154.86282,103.35736 154.86282,103.35736 C 158.54336,103.57921 162.00458,105.40939 164.39945,107.7841 C 162.00458,110.13864 158.55092,111.92596 154.86282,112.16797 C 154.86282,112.16797 155.34936,113.06542 155.8485,114.48721 C 156.26194,115.63423 156.34512,116.1485 156.34512,116.1485 C 156.34512,116.1485 154.23511,115.75776 153.1738,115.56364 C 152.1125,115.34937 148.57313,114.75443 146.65975,113.87464 C 144.14388,112.73518 141.87253,111.09154 141.87253,111.09154 L 141.87253,111.08146 z "
         style="font-size:12px;fill:#1f61a9;fill-opacity:1;stroke:#ffffff;stroke-width:0.387757;stroke-linejoin:round;stroke-opacity:1"
         id="path3964" />
      <path
         id="path11928"
         d="M 132.37119,107.75637 C 132.37119,104.91277 134.80136,102.61874 137.79621,102.61874 C 140.79105,102.61874 143.23131,104.91277 143.23131,107.75637 C 143.23131,110.60248 140.80114,112.90408 137.79621,112.90408 C 134.80136,112.90408 132.37119,110.60248 132.37119,107.75637 z "
         style="font-size:12px;fill:#1f61a9;fill-opacity:1;stroke:#ffffff;stroke-width:0.387757;stroke-linejoin:round;stroke-opacity:1" />
      <use
         height="500"
         width="275"
         transform="translate(60,0)"
         id="use4002"
         xlink:href="#path3964"
         y="0"
         x="0"
         style="fill:#1f61a9;fill-opacity:1;stroke:#ffffff;stroke-opacity:1" />
      <use
         height="500"
         width="275"
         transform="translate(-60,0)"
         id="use4004"
         xlink:href="#path3964"
         y="0"
         x="0"
         style="fill:#1f61a9;fill-opacity:1;stroke:#ffffff;stroke-opacity:1" />
      <use
         height="500"
         width="275"
         transform="translate(-60,0)"
         id="use4006"
         xlink:href="#path3972"
         y="0"
         x="0"
         style="fill:#1f61a9;fill-opacity:1;stroke:#ffffff;stroke-opacity:1" />
      <use
         height="500"
         width="275"
         transform="translate(-60,0)"
         id="use4008"
         xlink:href="#path11928"
         y="0"
         x="0"
         style="fill:#1f61a9;fill-opacity:1;stroke:#ffffff;stroke-opacity:1" />
      <use
         height="500"
         width="275"
         transform="translate(-28.99231,10.16604)"
         id="use4010"
         xlink:href="#path11928"
         y="0"
         x="0"
         style="fill:#1f61a9;fill-opacity:1;stroke:#ffffff;stroke-opacity:1" />
      <use
         height="500"
         width="275"
         transform="translate(60,0)"
         id="use4017"
         xlink:href="#path3972"
         y="0"
         x="0"
         style="fill:#1f61a9;fill-opacity:1;stroke:#ffffff;stroke-opacity:1" />
      <use
         height="500"
         width="275"
         transform="translate(30.99969,10)"
         id="use4015"
         xlink:href="#path11928"
         y="0"
         x="0"
         style="fill:#1f61a9;fill-opacity:1;stroke:#ffffff;stroke-opacity:1" />
      <use
         height="500"
         width="275"
         transform="translate(60,0)"
         id="use4019"
         xlink:href="#path11928"
         y="0"
         x="0"
         style="fill:#1f61a9;fill-opacity:1;stroke:#ffffff;stroke-opacity:1" />
      <g
         id="g4041"
         style="fill:#1f61a9;fill-opacity:1;stroke:#ffffff;stroke-opacity:1">
        <path
           style="font-size:12px;fill:#1f61a9;fill-opacity:1;stroke:#ffffff;stroke-width:0.387757;stroke-linejoin:round;stroke-opacity:1"
           d="M 253.1416,110.46099 C 252.80023,109.55902 252.72558,108.433 252.97943,107.26064 C 253.53771,104.71952 255.47615,102.89468 257.31075,103.20052 C 257.54541,103.24735 257.83267,103.33026 258.04289,103.4367 C 258.04289,103.4367 257.08589,97.616119 258.6373,94.269379 C 260.17856,90.905038 264.83999,87.932481 264.83999,87.932481 C 262.42515,84.742785 257.86004,84.142219 254.49146,86.69248 C 252.51574,88.188246 251.26688,90.426939 251.21691,92.649623 L 249.14213,90.852981 C 249.14213,90.852981 246.8406,93.442799 247.94133,97.481929 C 249.05817,101.52149 253.80109,104.98807 253.80109,104.98807 C 253.80109,104.98807 251.66853,103.57033 249.6792,103.05595 C 247.70351,102.54707 244.0492,103.11616 242.21217,103.5046 C 240.37972,103.89908 238.27517,103.9968 238.27517,103.9968 C 238.27517,103.9968 238.47812,104.39017 239.0756,105.28795 C 239.8009,106.35458 240.36109,106.92329 240.36109,106.92329 C 237.63037,108.47842 235.03796,111.07661 233.4438,113.66525 C 235.84649,114.83421 239.04028,115.22718 242.14248,114.31725 C 242.14248,114.31725 241.81591,115.69012 241.61696,117.07703 C 241.46491,118.24188 241.49173,118.71167 241.49173,118.71167 C 241.49173,118.71167 243.37269,117.66708 244.31819,117.14097 C 245.24755,116.61444 248.40724,114.92425 250.00633,113.53658 C 251.18909,112.51782 252.42673,111.25831 253.1416,110.46099 z "
           id="path3952" />
        <path
           sodipodi:nodetypes="cczsccscsscc"
           id="path4025"
           d="M 257.94747,110.94785 L 261.04567,111.51758 C 260.54653,112.77047 262.28617,118.90291 257.8794,124.62131 C 253.4994,130.30496 249.215,132.2496 243.01859,132.2496 C 238.28178,132.2496 231.97101,130.47236 228.80473,127.59095 L 229.08043,119.19125 C 229.24933,119.27192 227.20395,115.07459 227.63252,115.02921 C 228.14174,114.97628 229.14507,119.31477 229.31396,119.19125 C 230.91978,123.85747 237.55828,127.2355 243.0312,127.2355 C 249.82507,127.2355 255.32823,122.00711 255.32823,115.58129 C 255.32823,114.13933 255.24252,112.77047 254.73582,111.51758 L 257.94747,110.94785"
           style="font-size:12px;fill:#1f61a9;fill-opacity:1;stroke:#ffffff;stroke-width:0.387757;stroke-linejoin:round;stroke-opacity:1" />
        <use
           x="0"
           y="0"
           xlink:href="#path11928"
           id="use4027"
           transform="translate(91.09969,10)"
           width="275"
           height="500"
           style="fill:#1f61a9;fill-opacity:1;stroke:#ffffff;stroke-opacity:1" />
        <use
           x="0"
           y="0"
           xlink:href="#use4019"
           id="use4021"
           width="275"
           height="500"
           transform="translate(60,0)"
           style="fill:#1f61a9;fill-opacity:1;stroke:#ffffff;stroke-opacity:1" />
      </g>
      <use
         height="500"
         width="275"
         transform="matrix(-1,0,0,1,278.3109,0)"
         id="use4047"
         xlink:href="#g4041"
         y="0"
         x="0"
         style="fill:#1f61a9;fill-opacity:1;stroke:#ffffff;stroke-opacity:1" />
      <path
         style="font-size:12px;fill:#1f61a9;fill-opacity:1;stroke:#ffffff;stroke-width:0.38775712;stroke-linejoin:round;stroke-opacity:1"
         d="M 21.373328,170.67056 C 18.444848,170.67056 16.234667,170.94048 16.245106,167.33288 C 16.255546,163.72528 18.830944,163.9952 21.373328,163.9952 L 254.22853,163.9952 C 257.10749,163.9952 259.40292,163.7635 259.35675,167.33288 C 259.3106,170.90077 257.31853,170.67056 254.22853,170.67056 L 21.373328,170.67056 z "
         id="path4049"
         sodipodi:nodetypes="czsszss" />
      <path
         style="font-size:12px;fill:#1f61a9;fill-opacity:1;stroke:#ffffff;stroke-width:0.387757;stroke-linejoin:round;stroke-opacity:1"
         d="M 105.03786,154.32784 C 105.03786,151.48424 107.46803,149.19021 110.46288,149.19021 C 113.45772,149.19021 115.89798,151.48424 115.89798,154.32784 C 115.89798,157.17395 113.46781,159.47555 110.46288,159.47555 C 107.46803,159.47555 105.03786,157.17395 105.03786,154.32784 z "
         id="use4924" />
      <use
         height="500"
         width="275"
         transform="translate(56.66666,0)"
         id="use4928"
         xlink:href="#use4924"
         y="0"
         x="0"
         style="fill:#1f61a9;fill-opacity:1;stroke:#ffffff;stroke-opacity:1" />
      <use
         height="500"
         width="275"
         transform="translate(113.3333,0)"
         id="use4930"
         xlink:href="#use4924"
         y="0"
         x="0"
         style="fill:#1f61a9;fill-opacity:1;stroke:#ffffff;stroke-opacity:1" />
      <use
         height="500"
         width="275"
         transform="translate(-56.66667,0)"
         id="use4932"
         xlink:href="#use4924"
         y="0"
         x="0"
         style="fill:#1f61a9;fill-opacity:1;stroke:#ffffff;stroke-opacity:1" />
      <path
         id="path4934"
         d="M 119.92361,154.32784 C 119.92361,151.48424 128.37209,149.19021 138.78367,149.19021 C 149.19523,149.19021 157.67878,151.48424 157.67878,154.32784 C 157.67878,157.17395 149.2303,159.47555 138.78367,159.47555 C 128.37209,159.47555 119.92361,157.17395 119.92361,154.32784 z "
         style="font-size:12px;fill:#1f61a9;fill-opacity:1;stroke:#ffffff;stroke-width:0.387757;stroke-linejoin:round;stroke-opacity:1" />
      <path
         style="font-size:12px;fill:#1f61a9;fill-opacity:1;stroke:#ffffff;stroke-width:0.38775697;stroke-linejoin:round;stroke-opacity:1"
         d="M 233.16478,154.32784 C 233.16478,151.48424 239.02592,149.19021 246.24895,149.19021 C 253.47197,149.19021 259.35743,151.48424 259.35743,154.32784 C 259.35743,157.17395 253.4963,159.47555 246.24895,159.47555 C 239.02592,159.47555 233.16478,157.17395 233.16478,154.32784 z "
         id="path4936" />
      <use
         height="500"
         width="275"
         transform="translate(-216.9197,0)"
         id="use4938"
         xlink:href="#path4936"
         y="0"
         x="0"
         style="fill:#1f61a9;fill-opacity:1;stroke:#ffffff;stroke-opacity:1" />
      <path
         sodipodi:nodetypes="ccccc"
         id="rect4940"
         d="M 82.134581,148.34465 L 100.57939,153.92619 L 82.134591,160.32115 L 63.689783,154.73961 L 82.134581,148.34465 z "
         style="fill:#1f61a9;fill-opacity:1;fill-rule:evenodd;stroke:#ffffff;stroke-width:0.3880001;stroke-linejoin:miter;stroke-miterlimit:4;stroke-opacity:1" />
      <use
         height="500"
         width="275"
         transform="translate(113.3333,0)"
         id="use5816"
         xlink:href="#rect4940"
         y="0"
         x="0"
         style="fill:#1f61a9;fill-opacity:1;stroke:#ffffff;stroke-opacity:1" />
    </g>
  </g>
</svg>
